<?xml version="1.0" encoding="iso-8859-1"?>
<!-- Generator: Adobe Illustrator 19.0.0, SVG Export Plug-In . SVG Version: 6.00 Build 0)  -->
<svg version="1.1" id="Capa_1" xmlns="http://www.w3.org/2000/svg" xmlns:xlink="http://www.w3.org/1999/xlink" x="0px" y="0px"
	 viewBox="0 0 512 512" style="enable-background:new 0 0 512 512;" xml:space="preserve">
<path style="fill:#D62727;" d="M395.913,100.995v56.29l-77.053-14.194v-42.096c0-12.582,10.21-22.792,22.792-22.792h31.47
	c0.162,0,0.324,0,0.487,0.01C385.967,78.467,395.913,88.575,395.913,100.995z"/>
<path style="fill:#ED3B3B;" d="M395.913,100.995v50.318l-44.61-8.222v-42.096c0-12.42,9.946-22.528,22.305-22.781
	C385.967,78.467,395.913,88.575,395.913,100.995z"/>
<polygon style="fill:#F2F2F2;" points="504.396,277.934 504.396,439.138 7.604,439.138 7.604,143.09 458.772,143.09 "/>
<path style="fill:#DBDBDB;" d="M259.042,439.138H7.604V143.09h34.471C42.075,215.074,55.843,439.138,259.042,439.138z"/>
<g>
	<path style="fill:#5A5C60;" d="M469.063,173.506H368.498c-13.413,0-24.292,10.879-24.292,24.292v57.739
		c0,12.369,10.027,22.396,22.396,22.396h137.794"/>
	<circle style="fill:#5A5C60;" cx="113.137" cy="439.134" r="55.762"/>
	<circle style="fill:#5A5C60;" cx="386.21" cy="439.134" r="55.762"/>
</g>
<g>
	<circle style="fill:#404347;" cx="386.21" cy="439.134" r="24.179"/>
	<circle style="fill:#404347;" cx="113.137" cy="439.134" r="24.179"/>
</g>
<path style="fill:#FCC938;" d="M485.606,399.597h18.79v-71.984h-18.79c-8.101,0-14.668,6.567-14.668,14.668v42.649
	C470.939,393.03,477.505,399.597,485.606,399.597z"/>
<path style="fill:#ED3B3B;" d="M241.806,235.023h-22.633V212.39c0-7.658-6.208-13.866-13.866-13.866h-42.225
	c-7.658,0-13.866,6.208-13.866,13.866v22.633h-22.633c-7.658,0-13.866,6.208-13.866,13.866v42.225
	c0,7.658,6.208,13.866,13.866,13.866h22.633v22.633c0,7.658,6.208,13.866,13.866,13.866h42.225c7.658,0,13.866-6.208,13.866-13.866
	V304.98h22.633c7.658,0,13.866-6.208,13.866-13.866v-42.225C255.672,241.231,249.464,235.023,241.806,235.023z"/>
<path d="M307.707,431.535H191.63c-4.2,0-7.604,3.405-7.604,7.604c0,4.199,3.404,7.604,7.604,7.604h116.077
	c4.2,0,7.604-3.405,7.604-7.604C315.311,434.939,311.907,431.535,307.707,431.535z"/>
<path d="M511.599,275.498l-45.624-134.844c-1.045-3.088-3.943-5.167-7.202-5.167h-55.255v-34.49
	c0-16.761-13.636-30.398-30.398-30.398h-31.465c-16.762,0-30.399,13.636-30.399,30.398v34.49H103.922
	c-4.2,0-7.604,3.405-7.604,7.604c0,4.199,3.404,7.604,7.604,7.604h214.938h77.053h57.405l5.145,15.208h-89.965
	c-17.587,0-31.896,14.309-31.896,31.896v57.739c0,16.542,13.458,30,30,30h130.19v34.471h-11.186
	c-12.28,0-22.272,9.991-22.272,22.271v42.649c0,12.28,9.991,22.272,22.272,22.272h11.186v24.333h-34.551
	c-4.2,0-7.604,3.405-7.604,7.604c0,4.199,3.404,7.604,7.604,7.604h42.155c4.2,0,7.604-3.405,7.604-7.604V277.935
	C512,277.106,511.864,276.282,511.599,275.498z M326.463,135.487v-34.49c0-8.376,6.814-15.19,15.19-15.19h31.465
	c8.377,0,15.19,6.814,15.19,15.19v34.49H326.463z M351.81,255.538v-57.739c0-9.202,7.486-16.688,16.688-16.688h95.111l30.187,89.22
	H366.602C358.446,270.331,351.81,263.694,351.81,255.538z M485.606,391.994c-3.895,0-7.064-3.168-7.064-7.064v-42.649
	c0-3.894,3.168-7.064,7.064-7.064h11.186v56.776L485.606,391.994L485.606,391.994z"/>
<path d="M32.026,431.535H15.208v-280.84h63.366c4.2,0,7.604-3.405,7.604-7.604c0-4.199-3.404-7.604-7.604-7.604H7.604
	c-4.2,0-7.604,3.405-7.604,7.604v296.048c0,4.199,3.404,7.604,7.604,7.604h24.422c4.2,0,7.604-3.405,7.604-7.604
	C39.63,434.939,36.225,431.535,32.026,431.535z"/>
<path d="M113.138,375.773c-34.941,0-63.366,28.427-63.366,63.366s28.426,63.366,63.366,63.366s63.366-28.427,63.366-63.366
	S148.079,375.773,113.138,375.773z M113.138,487.297c-26.554,0-48.158-21.604-48.158-48.158c0-26.554,21.604-48.158,48.158-48.158
	s48.158,21.604,48.158,48.158C161.296,465.693,139.692,487.297,113.138,487.297z"/>
<path d="M437.853,416.741c-4.043,1.132-6.404,5.329-5.27,9.373c1.181,4.217,1.78,8.599,1.78,13.025
	c0,26.554-21.604,48.158-48.158,48.158c-26.554,0-48.158-21.604-48.158-48.158c0-26.554,21.604-48.158,48.158-48.158
	c13.919,0,27.155,6.022,36.312,16.524c2.761,3.166,7.563,3.493,10.728,0.734c3.165-2.761,3.494-7.563,0.734-10.729
	c-12.046-13.814-29.46-21.737-47.774-21.737c-34.941,0-63.366,28.427-63.366,63.366s28.426,63.366,63.366,63.366
	s63.366-28.427,63.366-63.366c0-5.812-0.789-11.575-2.345-17.128C446.094,417.966,441.9,415.608,437.853,416.741z"/>
<path d="M354.423,439.139c0,17.525,14.258,31.783,31.783,31.783s31.783-14.258,31.783-31.783c0-17.525-14.258-31.783-31.783-31.783
	S354.423,421.613,354.423,439.139z M402.779,439.139c0,9.139-7.436,16.575-16.575,16.575s-16.575-7.435-16.575-16.575
	c0-9.14,7.436-16.575,16.575-16.575S402.779,429.999,402.779,439.139z"/>
<path d="M113.138,407.356c-17.525,0-31.783,14.258-31.783,31.783c0,17.525,14.258,31.783,31.783,31.783s31.783-14.258,31.783-31.783
	C144.92,421.614,130.662,407.356,113.138,407.356z M113.138,455.712c-9.139,0-16.575-7.435-16.575-16.575
	s7.436-16.575,16.575-16.575s16.575,7.435,16.575,16.575S122.276,455.712,113.138,455.712z"/>
<path d="M205.307,190.92h-42.225c-11.839,0-21.47,9.632-21.47,21.47v15.029h-15.029c-11.839,0-21.47,9.632-21.47,21.47v42.225
	c0,11.838,9.631,21.47,21.47,21.47h15.029v15.029c0,11.838,9.631,21.47,21.47,21.47h42.225c11.839,0,21.47-9.632,21.47-21.47
	v-15.029h15.029c11.839,0,21.47-9.632,21.47-21.47v-42.225c0-11.838-9.631-21.47-21.47-21.47h-15.029V212.39
	C226.776,200.552,217.146,190.92,205.307,190.92z M241.806,242.627c3.452,0,6.262,2.809,6.262,6.262v42.225
	c0,3.452-2.809,6.262-6.262,6.262h-22.633c-4.2,0-7.604,3.405-7.604,7.604v22.633c0,3.452-2.809,6.262-6.262,6.262h-42.225
	c-3.452,0-6.262-2.809-6.262-6.262V304.98c0-4.199-3.404-7.604-7.604-7.604h-22.633c-3.452,0-6.262-2.809-6.262-6.262v-42.225
	c0-3.452,2.809-6.262,6.262-6.262h22.633c4.2,0,7.604-3.405,7.604-7.604V212.39c0-3.452,2.809-6.262,6.262-6.262h42.225
	c3.452,0,6.262,2.809,6.262,6.262v22.633c0,4.199,3.404,7.604,7.604,7.604L241.806,242.627L241.806,242.627z"/>
<path d="M357.386,56.406c4.2,0,7.604-3.405,7.604-7.604V17.099c0-4.199-3.404-7.604-7.604-7.604c-4.2,0-7.604,3.405-7.604,7.604
	v31.702C349.782,53.002,353.186,56.406,357.386,56.406z"/>
<path d="M387.059,65.241c1.284,0.838,2.725,1.24,4.153,1.24c2.481,0,4.914-1.213,6.372-3.445l17.342-26.538
	c2.297-3.516,1.31-8.227-2.206-10.525c-3.515-2.297-8.229-1.311-10.525,2.205l-17.342,26.538
	C382.555,58.232,383.543,62.944,387.059,65.241z"/>
<path d="M317.189,63.036c1.458,2.233,3.891,3.445,6.372,3.445c1.427,0,2.869-0.401,4.153-1.24c3.516-2.297,4.503-7.01,2.206-10.525
	l-17.342-26.538c-2.298-3.516-7.012-4.503-10.525-2.205c-3.516,2.297-4.503,7.01-2.206,10.525L317.189,63.036z"/>
<g>
</g>
<g>
</g>
<g>
</g>
<g>
</g>
<g>
</g>
<g>
</g>
<g>
</g>
<g>
</g>
<g>
</g>
<g>
</g>
<g>
</g>
<g>
</g>
<g>
</g>
<g>
</g>
<g>
</g>
</svg>
